<svg width="100" height="100" viewBox="0 0 100 100" fill="none" xmlns="http://www.w3.org/2000/svg">
<rect width="100" height="100" rx="14" fill="url(#paint0_linear)"/>
<path d="M21.1548 46.6378H24.1023C24.0597 44.0455 21.929 42.2557 18.6903 42.2557C15.5014 42.2557 13.1648 44.017 13.179 46.6591C13.1719 48.804 14.6847 50.0327 17.142 50.6222L18.7259 51.0199C20.3097 51.4034 21.1903 51.858 21.1974 52.8381C21.1903 53.9034 20.1818 54.6278 18.6193 54.6278C17.0213 54.6278 15.8707 53.8892 15.7713 52.4332H12.7955C12.8736 55.5795 15.125 57.206 18.6548 57.206C22.206 57.206 24.294 55.5085 24.3011 52.8452C24.294 50.4233 22.4688 49.1378 19.9403 48.5696L18.6335 48.2571C17.3693 47.9659 16.3111 47.4972 16.3324 46.4531C16.3324 45.5156 17.1634 44.8267 18.669 44.8267C20.1392 44.8267 21.0412 45.4943 21.1548 46.6378ZM26.3129 57H29.3384V53.5341L30.1552 52.6037L33.131 57H36.6751L32.4208 50.8139L36.4691 46.0909H32.9961L29.5018 50.2315H29.3384V42.4545H26.3129V57ZM42.4759 57.2131C45.1747 57.2131 46.9929 55.8991 47.419 53.875L44.6207 53.6903C44.3153 54.5213 43.5341 54.9545 42.5256 54.9545C41.0128 54.9545 40.054 53.9531 40.054 52.3267V52.3196H47.483V51.4886C47.483 47.7812 45.2386 45.9489 42.3551 45.9489C39.1449 45.9489 37.0639 48.2287 37.0639 51.5952C37.0639 55.054 39.1165 57.2131 42.4759 57.2131ZM40.054 50.4446C40.1179 49.2017 41.0625 48.2074 42.4048 48.2074C43.7188 48.2074 44.6278 49.1449 44.6349 50.4446H40.054ZM54.429 57.2131C57.1278 57.2131 58.946 55.8991 59.3722 53.875L56.5739 53.6903C56.2685 54.5213 55.4872 54.9545 54.4787 54.9545C52.9659 54.9545 52.0071 53.9531 52.0071 52.3267V52.3196H59.4361V51.4886C59.4361 47.7812 57.1918 45.9489 54.3082 45.9489C51.098 45.9489 49.017 48.2287 49.017 51.5952C49.017 55.054 51.0696 57.2131 54.429 57.2131ZM52.0071 50.4446C52.071 49.2017 53.0156 48.2074 54.358 48.2074C55.6719 48.2074 56.581 49.1449 56.5881 50.4446H52.0071ZM67.2131 46.0909H65.1605V43.4773H62.1349V46.0909H60.6435V48.3636H62.1349V54.0455C62.1207 56.1832 63.5767 57.2415 65.7713 57.1491C66.5526 57.1207 67.1065 56.9645 67.4119 56.8651L66.9361 54.6136C66.7869 54.642 66.4673 54.7131 66.1832 54.7131C65.5795 54.7131 65.1605 54.4858 65.1605 53.6477V48.3636H67.2131V46.0909ZM69.1839 57H72.2095V50.8281C72.2095 49.4858 73.1896 48.5625 74.5249 48.5625C74.9439 48.5625 75.5192 48.6335 75.8033 48.7259V46.0412C75.5334 45.9773 75.157 45.9347 74.8516 45.9347C73.63 45.9347 72.6286 46.6449 72.2308 47.9943H72.1172V46.0909H69.1839V57ZM79.5675 61.0909C81.8189 61.0909 83.0121 59.9403 83.63 58.179L87.87 46.1051L84.6669 46.0909L82.3871 54.1023H82.2734L80.0149 46.0909H76.8331L80.7464 57.3125L80.5689 57.7741C80.1712 58.7969 79.4112 58.8466 78.3459 58.5199L77.6641 60.7784C78.0973 60.9631 78.8004 61.0909 79.5675 61.0909Z" fill="white"/>
<defs>
<linearGradient id="paint0_linear" x1="0" y1="100" x2="100" y2="0" gradientUnits="userSpaceOnUse">
<stop stop-color="#1C2541"/>
<stop offset="1" stop-color="#6F7A9A"/>
</linearGradient>
</defs>
</svg>
